<svg width="24" height="24" viewBox="0 0 24 24" fill="none" xmlns="http://www.w3.org/2000/svg">
<path d="M10.6177 13.3605C10.6177 14.2006 10.0084 14.4661 9.25971 14.4661H7.29665V12.1635H9.29888C10.1085 12.1679 10.6177 12.503 10.6177 13.3605ZM10.2826 9.77824C10.2826 9.00781 9.68627 8.825 9.02467 8.825H7.301V10.775H9.1596C9.81685 10.775 10.2826 10.4877 10.2826 9.77824ZM16.0412 10.7881C15.2446 10.7881 14.7136 11.2843 14.6614 12.0808H17.3688C17.2948 11.2756 16.8769 10.7881 16.0412 10.7881ZM22 4.08929V19.4107C22 20.5642 21.0642 21.5 19.9107 21.5H4.58929C3.43583 21.5 2.5 20.5642 2.5 19.4107V4.08929C2.5 2.93583 3.43583 2 4.58929 2H19.9107C21.0642 2 22 2.93583 22 4.08929ZM14.3262 8.6596H17.7126V7.83694H14.3262V8.6596ZM12.4546 13.4606C12.4546 12.4116 11.9584 11.5063 10.9311 11.2146C11.6798 10.8577 12.0715 10.4442 12.0715 9.60413C12.0715 7.94141 10.831 7.53661 9.399 7.53661H5.45982V15.8938H9.51217C11.0313 15.885 12.4546 15.1581 12.4546 13.4606ZM19.0402 12.8164C19.0402 11.0275 17.9912 9.53449 16.0978 9.53449C14.2522 9.53449 13.003 10.9186 13.003 12.7381C13.003 14.6228 14.1913 15.9155 16.0978 15.9155C17.5429 15.9155 18.4787 15.267 18.9314 13.8785H17.4645C17.3035 14.3964 16.6549 14.6663 16.15 14.6663C15.175 14.6663 14.6657 14.0961 14.6657 13.1298H19.0271C19.0315 13.0297 19.0402 12.9209 19.0402 12.8164Z" fill="black"/>
</svg>
