<svg width="24" height="24" viewBox="0 0 24 24" fill="none" xmlns="http://www.w3.org/2000/svg">
<path d="M19.9107 2H4.58929C4.03517 2 3.50375 2.22012 3.11194 2.61194C2.72012 3.00375 2.5 3.53517 2.5 4.08929L2.5 19.4107C2.5 19.9648 2.72012 20.4962 3.11194 20.8881C3.50375 21.2799 4.03517 21.5 4.58929 21.5H10.5633V14.8704H7.82115V11.75H10.5633V9.3717C10.5633 6.66651 12.1738 5.17223 14.6405 5.17223C15.8218 5.17223 17.0571 5.3829 17.0571 5.3829V8.03804H15.696C14.355 8.03804 13.9367 8.87027 13.9367 9.72383V11.75H16.9304L16.4516 14.8704H13.9367V21.5H19.9107C20.4648 21.5 20.9962 21.2799 21.3881 20.8881C21.7799 20.4962 22 19.9648 22 19.4107V4.08929C22 3.53517 21.7799 3.00375 21.3881 2.61194C20.9962 2.22012 20.4648 2 19.9107 2Z" fill="black"/>
</svg>
