<svg width="24" height="24" viewBox="0 0 24 24" fill="none" xmlns="http://www.w3.org/2000/svg">
<path d="M20.6071 2H3.8885C3.12243 2 2.5 2.63114 2.5 3.40592V20.0941C2.5 20.8689 3.12243 21.5 3.8885 21.5H20.6071C21.3732 21.5 22 20.8689 22 20.0941V3.40592C22 2.63114 21.3732 2 20.6071 2ZM8.39353 18.7143H5.50335V9.40826H8.39788V18.7143H8.39353ZM6.94844 8.13728C6.02132 8.13728 5.27266 7.38426 5.27266 6.4615C5.27266 5.53873 6.02132 4.78571 6.94844 4.78571C7.87121 4.78571 8.62422 5.53873 8.62422 6.4615C8.62422 7.38862 7.87556 8.13728 6.94844 8.13728ZM19.2273 18.7143H16.3372V14.1875C16.3372 13.108 16.3154 11.7195 14.8355 11.7195C13.3295 11.7195 13.0988 12.8948 13.0988 14.1092V18.7143H10.2086V9.40826H12.9813V10.6792H13.0204C13.4078 9.94799 14.3523 9.17757 15.7583 9.17757C18.6833 9.17757 19.2273 11.1058 19.2273 13.6129V18.7143Z" fill="black"/>
</svg>
