<svg width="24" height="24" viewBox="0 0 24 24" fill="none" xmlns="http://www.w3.org/2000/svg">
<path d="M19.8968 2.5H4.58761C3.43508 2.5 2.5 3.42383 2.5 4.5625V19.6875C2.5 20.8262 3.43508 21.75 4.58761 21.75H19.8968C21.0493 21.75 21.9844 20.8262 21.9844 19.6875V4.5625C21.9844 3.42383 21.0493 2.5 19.8968 2.5ZM17.77 9.32344C17.7787 9.44375 17.7787 9.56836 17.7787 9.68867C17.7787 13.4141 14.9082 17.7066 9.66312 17.7066C8.04522 17.7066 6.54475 17.2426 5.28348 16.4434C5.51399 16.4691 5.7358 16.4777 5.97065 16.4777C7.30586 16.4777 8.53233 16.0309 9.5109 15.2746C8.25833 15.2488 7.20582 14.4367 6.84484 13.3195C7.28411 13.384 7.67989 13.384 8.1322 13.268C6.82744 13.0059 5.84888 11.8715 5.84888 10.5008V10.4664C6.22726 10.677 6.67087 10.8059 7.13624 10.823C6.745 10.5659 6.42427 10.2171 6.20267 9.80776C5.98107 9.39839 5.8655 8.94119 5.86627 8.47695C5.86627 7.95273 6.00545 7.47148 6.25335 7.05469C7.65814 8.76484 9.7675 9.88203 12.1335 10.0023C11.729 8.09023 13.1773 6.53906 14.9169 6.53906C15.7389 6.53906 16.4783 6.87852 17.0002 7.42852C17.6439 7.3082 18.2615 7.07187 18.8095 6.74961C18.5964 7.40273 18.1484 7.95273 17.5569 8.30078C18.131 8.24062 18.6877 8.08164 19.2009 7.8625C18.8138 8.42539 18.3267 8.92383 17.77 9.32344Z" fill="black"/>
</svg>
